<mxfile host="app.diagrams.net" modified="2020-10-20T21:20:17.544Z" agent="5.0 (Windows)" etag="syY_YQOTIBRio3c0TK7S" version="13.8.1" type="github">
  <diagram id="GH6W7SEznlXIR2MrJyil" name="Page-1">
    <mxGraphModel dx="1447" dy="863" grid="1" gridSize="10" guides="1" tooltips="1" connect="1" arrows="1" fold="1" page="1" pageScale="1" pageWidth="1100" pageHeight="850" math="0" shadow="0">
      <root>
        <mxCell id="0" />
        <mxCell id="1" parent="0" />
        <mxCell id="cnqzPTQE9FA1bivrmR1H-2" value="&lt;h1&gt;&amp;lt;HEADER&amp;gt;&lt;br&gt;&lt;/h1&gt;" style="rounded=0;whiteSpace=wrap;html=1;fillColor=#dae8fc;strokeColor=#6c8ebf;" parent="1" vertex="1">
          <mxGeometry width="1100" height="100" as="geometry" />
        </mxCell>
        <mxCell id="cnqzPTQE9FA1bivrmR1H-3" value="" style="rounded=0;whiteSpace=wrap;html=1;fillColor=#f5f5f5;strokeColor=#666666;fontColor=#333333;" parent="1" vertex="1">
          <mxGeometry y="100" width="250" height="750" as="geometry" />
        </mxCell>
        <mxCell id="cnqzPTQE9FA1bivrmR1H-4" value="&lt;font style=&quot;font-size: 24px&quot;&gt;&amp;lt;Side NavBar&amp;gt;&lt;/font&gt;" style="text;html=1;strokeColor=none;fillColor=none;align=center;verticalAlign=middle;whiteSpace=wrap;rounded=0;" parent="1" vertex="1">
          <mxGeometry x="50" y="110" width="180" height="30" as="geometry" />
        </mxCell>
        <mxCell id="cnqzPTQE9FA1bivrmR1H-5" value="&lt;i&gt;&lt;font style=&quot;font-size: 25px&quot;&gt;LOGO&lt;/font&gt;&lt;/i&gt;" style="text;html=1;strokeColor=#006EAF;fillColor=#1ba1e2;align=center;verticalAlign=middle;whiteSpace=wrap;rounded=0;fontColor=#ffffff;" parent="1" vertex="1">
          <mxGeometry x="70" y="30" width="110" height="40" as="geometry" />
        </mxCell>
        <mxCell id="cnqzPTQE9FA1bivrmR1H-6" value="" style="strokeWidth=1;shadow=0;dashed=0;align=center;html=1;shape=mxgraph.mockup.forms.rrect;rSize=0;strokeColor=#999999;fillColor=#ffffff;" parent="1" vertex="1">
          <mxGeometry y="200" width="250" height="140" as="geometry" />
        </mxCell>
        <mxCell id="cnqzPTQE9FA1bivrmR1H-7" value="&lt;font style=&quot;font-size: 27px&quot;&gt;Productos &lt;/font&gt;▼" style="strokeWidth=1;shadow=0;dashed=0;align=center;html=1;shape=mxgraph.mockup.forms.rrect;rSize=0;strokeColor=#006EAF;fontSize=17;fillColor=#1ba1e2;resizeWidth=1;fontColor=#ffffff;" parent="cnqzPTQE9FA1bivrmR1H-6" vertex="1">
          <mxGeometry width="250" height="60" relative="1" as="geometry">
            <mxPoint as="offset" />
          </mxGeometry>
        </mxCell>
        <mxCell id="cnqzPTQE9FA1bivrmR1H-8" value="&lt;ul&gt;&lt;li&gt;&lt;span style=&quot;background-color: rgb(0 , 0 , 102)&quot;&gt;&lt;font color=&quot;#FFFFFF&quot;&gt;&lt;i&gt;&lt;font style=&quot;font-size: 22px&quot;&gt;&amp;nbsp; Agregar&lt;br&gt;&lt;/font&gt;&lt;/i&gt;&lt;/font&gt;&lt;/span&gt;&lt;/li&gt;&lt;/ul&gt;" style="strokeWidth=1;shadow=0;dashed=0;align=center;html=1;shape=mxgraph.mockup.forms.anchor;fontSize=17;align=left;spacingLeft=5;resizeWidth=1;strokeColor=#6c8ebf;fillColor=#dae8fc;" parent="cnqzPTQE9FA1bivrmR1H-6" vertex="1">
          <mxGeometry y="70.53052631578947" width="250" height="29.473684210526315" as="geometry" />
        </mxCell>
        <mxCell id="cnqzPTQE9FA1bivrmR1H-9" value="&lt;ul&gt;&lt;li&gt;&lt;font style=&quot;font-size: 23px&quot;&gt;&amp;nbsp; Eliminar&lt;/font&gt;&lt;/li&gt;&lt;/ul&gt;" style="strokeWidth=1;shadow=0;dashed=0;align=center;html=1;shape=mxgraph.mockup.forms.anchor;fontSize=17;fontColor=#666666;align=left;spacingLeft=5;resizeWidth=1;" parent="cnqzPTQE9FA1bivrmR1H-6" vertex="1">
          <mxGeometry y="100.00464396284829" width="250" height="24.705882352941178" as="geometry" />
        </mxCell>
        <mxCell id="cnqzPTQE9FA1bivrmR1H-23" value="" style="verticalLabelPosition=bottom;shadow=0;dashed=0;align=center;html=1;verticalAlign=top;strokeWidth=1;shape=mxgraph.mockup.navigation.scrollBar;strokeColor=#999999;barPos=20;fillColor2=#99ddff;strokeColor2=none;direction=north;" parent="1" vertex="1">
          <mxGeometry x="1080" y="100" width="20" height="750" as="geometry" />
        </mxCell>
        <mxCell id="cnqzPTQE9FA1bivrmR1H-24" value="&lt;font style=&quot;font-size: 28px&quot;&gt;Provedores &lt;/font&gt;&lt;font style=&quot;font-size: 19px&quot;&gt;▼&lt;/font&gt;" style="rounded=0;whiteSpace=wrap;html=1;" parent="1" vertex="1">
          <mxGeometry y="360" width="250" height="65" as="geometry" />
        </mxCell>
        <mxCell id="cnqzPTQE9FA1bivrmR1H-25" value="&lt;font style=&quot;font-size: 31px&quot;&gt;Inventario&lt;/font&gt;" style="rounded=0;whiteSpace=wrap;html=1;" parent="1" vertex="1">
          <mxGeometry y="442.5" width="250" height="65" as="geometry" />
        </mxCell>
        <mxCell id="cnqzPTQE9FA1bivrmR1H-32" value="" style="endArrow=none;html=1;exitX=1;exitY=1;exitDx=0;exitDy=0;entryX=0;entryY=0.07;entryDx=0;entryDy=0;entryPerimeter=0;" parent="1" source="cnqzPTQE9FA1bivrmR1H-3" target="cnqzPTQE9FA1bivrmR1H-23" edge="1">
          <mxGeometry width="50" height="50" relative="1" as="geometry">
            <mxPoint x="280" y="870" as="sourcePoint" />
            <mxPoint x="330" y="820" as="targetPoint" />
          </mxGeometry>
        </mxCell>
        <mxCell id="cnqzPTQE9FA1bivrmR1H-35" value="" style="whiteSpace=wrap;html=1;aspect=fixed;fillColor=#f5f5f5;strokeColor=#666666;fontColor=#333333;" parent="1" vertex="1">
          <mxGeometry x="340" y="140" width="660" height="660" as="geometry" />
        </mxCell>
        <mxCell id="cnqzPTQE9FA1bivrmR1H-38" value="" style="verticalLabelPosition=bottom;shadow=0;dashed=0;align=center;html=1;verticalAlign=top;strokeWidth=1;shape=mxgraph.mockup.graphics.simpleIcon;strokeColor=#999999;fillColor=#FFFFFF;" parent="1" vertex="1">
          <mxGeometry x="417.5" y="220" width="130" height="170" as="geometry" />
        </mxCell>
        <mxCell id="cnqzPTQE9FA1bivrmR1H-39" value="&lt;font style=&quot;font-size: 22px&quot;&gt;&amp;lt;CrearProducto&amp;gt;&lt;/font&gt;" style="text;html=1;align=center;verticalAlign=middle;whiteSpace=wrap;rounded=0;fillColor=#f5f5f5;strokeColor=#666666;fontColor=#333333;" parent="1" vertex="1">
          <mxGeometry x="350" y="150" width="170" height="40" as="geometry" />
        </mxCell>
        <mxCell id="cnqzPTQE9FA1bivrmR1H-40" value="&lt;div&gt;Agregar imagen &lt;br&gt;&lt;/div&gt;&lt;div&gt;+&lt;br&gt;&lt;/div&gt;" style="strokeWidth=1;shadow=0;dashed=0;align=center;html=1;shape=mxgraph.mockup.buttons.button;strokeColor=#666666;fontColor=#ffffff;mainText=;buttonStyle=round;fontSize=17;fontStyle=1;fillColor=#008cff;whiteSpace=wrap;" parent="1" vertex="1">
          <mxGeometry x="445" y="400" width="75" height="50" as="geometry" />
        </mxCell>
        <mxCell id="cnqzPTQE9FA1bivrmR1H-41" value="Nombre" style="text;html=1;strokeColor=none;fillColor=none;align=center;verticalAlign=middle;whiteSpace=wrap;rounded=0;" parent="1" vertex="1">
          <mxGeometry x="610" y="220" width="70" height="20" as="geometry" />
        </mxCell>
        <mxCell id="cnqzPTQE9FA1bivrmR1H-43" value="&lt;div&gt;Descripcion&lt;/div&gt;&lt;div&gt;&lt;br&gt;&lt;/div&gt;" style="text;html=1;strokeColor=none;fillColor=none;align=center;verticalAlign=middle;whiteSpace=wrap;rounded=0;" parent="1" vertex="1">
          <mxGeometry x="610" y="305" width="95" height="35" as="geometry" />
        </mxCell>
        <mxCell id="cnqzPTQE9FA1bivrmR1H-45" value="" style="rounded=1;whiteSpace=wrap;html=1;fillColor=#FFFFFF;" parent="1" vertex="1">
          <mxGeometry x="620" y="250" width="180" height="20" as="geometry" />
        </mxCell>
        <mxCell id="cnqzPTQE9FA1bivrmR1H-46" value="" style="rounded=1;whiteSpace=wrap;html=1;fillColor=#FFFFFF;" parent="1" vertex="1">
          <mxGeometry x="620" y="330" width="280" height="100" as="geometry" />
        </mxCell>
        <mxCell id="cnqzPTQE9FA1bivrmR1H-47" value="Precio" style="text;html=1;strokeColor=none;fillColor=none;align=center;verticalAlign=middle;whiteSpace=wrap;rounded=0;" parent="1" vertex="1">
          <mxGeometry x="620" y="480" width="40" height="20" as="geometry" />
        </mxCell>
        <mxCell id="cnqzPTQE9FA1bivrmR1H-48" value="" style="rounded=1;whiteSpace=wrap;html=1;fillColor=#FFFFFF;" parent="1" vertex="1">
          <mxGeometry x="680" y="480" width="120" height="20" as="geometry" />
        </mxCell>
        <mxCell id="cnqzPTQE9FA1bivrmR1H-50" value="PLACEHOLDER" style="text;html=1;strokeColor=none;fillColor=none;align=center;verticalAlign=middle;whiteSpace=wrap;rounded=0;" parent="1" vertex="1">
          <mxGeometry x="457" y="230" width="63" height="20" as="geometry" />
        </mxCell>
        <mxCell id="cnqzPTQE9FA1bivrmR1H-51" value="Agregar Producto" style="strokeWidth=1;shadow=0;dashed=0;align=center;html=1;shape=mxgraph.mockup.buttons.button;strokeColor=#666666;fontColor=#ffffff;mainText=;buttonStyle=round;fontSize=17;fontStyle=1;fillColor=#008cff;whiteSpace=wrap;" parent="1" vertex="1">
          <mxGeometry x="595" y="710" width="150" height="50" as="geometry" />
        </mxCell>
        <mxCell id="cnqzPTQE9FA1bivrmR1H-53" value="Agregar Proveedor" style="text;html=1;strokeColor=none;fillColor=none;align=center;verticalAlign=middle;whiteSpace=wrap;rounded=0;" parent="1" vertex="1">
          <mxGeometry x="417.5" y="500" width="135" height="20" as="geometry" />
        </mxCell>
        <mxCell id="cnqzPTQE9FA1bivrmR1H-54" value="" style="strokeWidth=1;shadow=0;dashed=0;align=center;html=1;shape=mxgraph.mockup.forms.rrect;rSize=0;strokeColor=#999999;fillColor=#ffffff;recursiveResize=0;" parent="1" vertex="1">
          <mxGeometry x="420" y="530" width="153" height="130" as="geometry" />
        </mxCell>
        <mxCell id="cnqzPTQE9FA1bivrmR1H-55" value="Option 1" style="strokeWidth=1;shadow=0;dashed=0;align=center;html=1;shape=mxgraph.mockup.forms.rrect;rSize=0;fillColor=#eeeeee;strokeColor=#999999;gradientColor=#cccccc;align=left;spacingLeft=4;fontSize=17;fontColor=#666666;labelPosition=right;" parent="cnqzPTQE9FA1bivrmR1H-54" vertex="1">
          <mxGeometry x="8" y="7.5" width="15" height="15" as="geometry" />
        </mxCell>
        <mxCell id="cnqzPTQE9FA1bivrmR1H-56" value="Option 2" style="strokeWidth=1;shadow=0;dashed=0;align=center;html=1;shape=mxgraph.mockup.forms.rrect;rSize=0;fillColor=#eeeeee;strokeColor=#999999;gradientColor=#cccccc;align=left;spacingLeft=4;fontSize=17;fontColor=#666666;labelPosition=right;" parent="cnqzPTQE9FA1bivrmR1H-54" vertex="1">
          <mxGeometry x="8" y="37.5" width="15" height="15" as="geometry" />
        </mxCell>
        <mxCell id="cnqzPTQE9FA1bivrmR1H-57" value="Option 3" style="strokeWidth=1;shadow=0;dashed=0;align=center;html=1;shape=mxgraph.mockup.forms.checkbox;rSize=0;resizable=0;fillColor=#aaaaaa;strokeColor=#444444;gradientColor=#666666;align=left;spacingLeft=4;fontSize=17;fontColor=#008cff;labelPosition=right;" parent="cnqzPTQE9FA1bivrmR1H-54" vertex="1">
          <mxGeometry x="8" y="67.5" width="15" height="15" as="geometry" />
        </mxCell>
        <mxCell id="cnqzPTQE9FA1bivrmR1H-58" value="Option 4" style="strokeWidth=1;shadow=0;dashed=0;align=center;html=1;shape=mxgraph.mockup.forms.rrect;rSize=0;fillColor=#eeeeee;strokeColor=#999999;gradientColor=#cccccc;align=left;spacingLeft=4;fontSize=17;fontColor=#666666;labelPosition=right;" parent="cnqzPTQE9FA1bivrmR1H-54" vertex="1">
          <mxGeometry x="8" y="97.5" width="15" height="15" as="geometry" />
        </mxCell>
        <mxCell id="cnqzPTQE9FA1bivrmR1H-59" value="" style="verticalLabelPosition=bottom;shadow=0;dashed=0;align=center;html=1;verticalAlign=top;strokeWidth=1;shape=mxgraph.mockup.navigation.scrollBar;strokeColor=#999999;barPos=20;fillColor2=#99ddff;strokeColor2=none;direction=north;fillColor=#FFFFFF;" parent="cnqzPTQE9FA1bivrmR1H-54" vertex="1">
          <mxGeometry x="133" width="20" height="130" as="geometry" />
        </mxCell>
        <mxCell id="M8kgBegOaD-96C8BDJ6E-3" style="edgeStyle=orthogonalEdgeStyle;rounded=0;orthogonalLoop=1;jettySize=auto;html=1;entryX=0.439;entryY=1;entryDx=0;entryDy=0;entryPerimeter=0;" edge="1" parent="1" source="M8kgBegOaD-96C8BDJ6E-2" target="cnqzPTQE9FA1bivrmR1H-35">
          <mxGeometry relative="1" as="geometry" />
        </mxCell>
        <mxCell id="M8kgBegOaD-96C8BDJ6E-2" value="&lt;h1&gt;Componente 10: CrearProducto&lt;br&gt;&lt;/h1&gt;&lt;p&gt;Componente para agrerar un producto nuevo al inventario.&lt;br&gt;&lt;/p&gt;" style="text;html=1;strokeColor=#d6b656;fillColor=#fff2cc;spacing=5;spacingTop=-20;whiteSpace=wrap;overflow=hidden;rounded=0;" vertex="1" parent="1">
          <mxGeometry x="555" y="1020" width="310" height="110" as="geometry" />
        </mxCell>
      </root>
    </mxGraphModel>
  </diagram>
</mxfile>
